<?xml version="1.0" encoding="utf-8"?>
<!-- Generator: Adobe Illustrator 24.2.1, SVG Export Plug-In . SVG Version: 6.00 Build 0)  -->
<svg version="1.1" id="Слой_1" xmlns="http://www.w3.org/2000/svg" xmlns:xlink="http://www.w3.org/1999/xlink" x="0px" y="0px"
	 viewBox="0 0 26 27" style="enable-background:new 0 0 26 27;" xml:space="preserve">
<style type="text/css">
	.st0{fill:#996600;}
</style>
<path class="st0" d="M9,19c-2.2-3.8-2.3-7.8-2-9.7C1.7,11.8-1.5,17.2,0.7,22C3.2,22.3,6.7,21.5,9,19z"/>
<path class="st0" d="M9.6,19.9c-2.1,2.2-5.6,3.4-8.3,3.2c2.5,3.5,9,5.1,14.9,1.7C13.7,24.2,11.3,22.4,9.6,19.9z"/>
<path class="st0" d="M15.7,12c-3.5-3.9-3.8-7.6-3.3-10.1C8.8,4,7,9.3,8.4,14.8C10,21,15.7,25.7,21,23.3C21.1,21.6,20.9,17.7,15.7,12
	z"/>
<path class="st0" d="M25.5,10.2c-1.6-6.2-7-10.5-11.9-8.8c-0.7,2.3-0.6,6.1,2.9,9.9c1.6,1.9,5.6,6.4,5.5,11.5
	C25.3,20.4,26.8,15.4,25.5,10.2z"/>
</svg>
